<?xml version="1.0" standalone="no"?>
<!DOCTYPE svg PUBLIC "-//W3C//DTD SVG 20010904//EN"
 "http://www.w3.org/TR/2001/REC-SVG-20010904/DTD/svg10.dtd">
<svg version="1.0" xmlns="http://www.w3.org/2000/svg"
 width="256.000000pt" height="140.000000pt" viewBox="0 0 256.000000 140.000000"
 preserveAspectRatio="xMidYMid meet">

<g transform="translate(0.000000,140.000000) scale(0.100000,-0.100000)"
fill="#000000" stroke="none">
<path d="M1264 1125 c-4 -9 -2 -21 5 -28 6 -6 12 -43 13 -81 l2 -71 5 74 6 73
48 -66 47 -66 58 28 c31 16 65 27 76 24 21 -4 37 14 29 35 -7 18 -23 16 -48
-7 -11 -11 -42 -30 -67 -43 l-47 -24 -38 55 c-21 30 -40 67 -43 81 -6 30 -37
40 -46 16z"/>
<path d="M1205 1104 c-99 -34 -125 -47 -125 -60 0 -8 4 -14 9 -14 25 0 153 55
158 67 8 21 2 22 -42 7z"/>
<path d="M1321 1105 c3 -13 28 -27 79 -46 89 -33 86 -33 93 -15 5 13 -6 18
-162 74 -8 3 -12 -1 -10 -13z"/>
<path d="M1223 1033 c-41 -62 -49 -83 -33 -83 6 0 10 6 8 13 -1 6 11 32 28 57
40 58 46 70 40 70 -3 0 -22 -26 -43 -57z"/>
<path d="M1024 1045 c-8 -21 4 -35 32 -35 14 0 43 -9 65 -21 23 -11 43 -18 46
-15 3 2 -17 16 -45 30 -27 14 -52 32 -55 41 -8 19 -36 20 -43 0z"/>
<path d="M1248 1016 c-25 -18 -34 -69 -15 -84 12 -10 16 -4 25 40 5 29 9 54 9
55 -1 1 -10 -4 -19 -11z"/>
<path d="M1315 965 c-1 -52 0 -54 17 -38 21 18 24 63 6 81 -20 20 -23 14 -23
-43z"/>
<path d="M1043 992 c-16 -10 -1 -107 30 -201 18 -53 26 -67 45 -69 l23 -4 -20
41 c-25 48 -51 151 -51 204 0 37 -5 43 -27 29z"/>
<path d="M1505 938 c-4 -35 -18 -96 -31 -136 -28 -85 -28 -82 -11 -82 26 0 64
109 73 213 6 57 4 67 -9 67 -11 0 -17 -16 -22 -62z"/>
<path d="M1415 959 c-5 -6 -1 -16 9 -21 36 -20 1 -58 -55 -58 -57 0 -54 -28 3
-32 30 -2 44 -8 46 -19 4 -21 -26 -51 -41 -42 -7 3 -4 -3 7 -15 33 -38 71 2
64 67 -1 16 3 36 10 44 8 9 12 31 10 49 -2 25 -8 34 -25 36 -11 2 -24 -2 -28
-9z"/>
<path d="M1092 948 c3 -7 20 -57 39 -110 30 -87 49 -120 49 -87 0 6 8 18 19
27 26 24 42 94 25 116 -15 21 -20 14 -29 -41 -4 -24 -10 -43 -14 -43 -4 0 -13
21 -20 48 -20 67 -39 102 -57 102 -9 0 -14 -6 -12 -12z"/>
<path d="M1334 908 l-19 -23 23 19 c21 18 27 26 19 26 -2 0 -12 -10 -23 -22z"/>
<path d="M1260 851 c0 -11 4 -22 9 -25 4 -3 6 6 3 19 -5 30 -12 33 -12 6z"/>
<path d="M1239 793 c-13 -16 -12 -17 4 -4 9 7 17 15 17 17 0 8 -8 3 -21 -13z"/>
<path d="M1215 744 c39 -20 53 -34 35 -34 -7 0 -21 7 -31 16 -18 16 -27 15
-59 -5 -8 -5 -23 -12 -32 -15 -24 -7 -24 -46 0 -46 22 0 42 18 36 34 -6 15 34
39 49 29 7 -4 1 -11 -18 -19 l-30 -13 31 -1 c27 0 33 -6 52 -47 12 -27 23 -57
24 -68 4 -27 33 -26 33 1 0 12 11 45 24 73 22 46 27 50 50 44 14 -3 34 -12 43
-21 21 -18 51 -8 46 15 -3 13 -12 18 -33 16 -51 -3 -71 5 -71 27 0 11 5 20 10
20 5 0 7 2 4 5 -3 3 -26 -4 -51 -16 l-45 -22 -37 21 c-20 12 -42 22 -48 22 -7
0 2 -7 18 -16z m139 -19 c-4 -8 -14 -15 -23 -15 -14 1 -13 3 3 15 25 19 27 19
20 0z m-37 -21 c20 -6 21 -7 6 -42 -27 -67 -34 -69 -61 -16 -19 37 -21 48 -10
55 15 10 35 11 65 3z m-17 -129 c0 -8 -4 -15 -10 -15 -5 0 -10 7 -10 15 0 8 5
15 10 15 6 0 10 -7 10 -15z"/>
<path d="M1390 725 c7 -8 17 -15 22 -15 6 0 5 7 -2 15 -7 8 -17 15 -22 15 -6
0 -5 -7 2 -15z"/>
<path d="M1163 664 c-5 -13 4 -27 32 -51 21 -18 43 -32 49 -30 22 7 14 24 -29
60 -39 33 -46 36 -52 21z"/>
<path d="M1363 641 c-42 -35 -55 -61 -32 -61 18 0 89 60 89 75 0 26 -15 23
-57 -14z"/>
<path d="M833 478 c43 -105 51 -118 68 -118 14 0 27 17 44 56 29 65 30 74 12
74 -7 0 -22 -21 -33 -47 l-20 -48 -22 48 c-13 29 -27 47 -38 47 -9 0 -14 -5
-11 -12z"/>
<path d="M990 426 l0 -66 55 0 c30 0 55 5 55 10 0 6 -18 10 -40 10 -51 0 -57
27 -7 32 17 2 32 8 32 13 0 6 -15 11 -32 13 -45 4 -42 20 5 24 55 5 45 23 -15
26 l-53 3 0 -65z"/>
<path d="M1120 425 l0 -65 50 0 c28 0 50 5 50 10 0 6 -16 10 -35 10 l-35 0 0
55 c0 42 -3 55 -15 55 -12 0 -15 -14 -15 -65z"/>
<path d="M1210 475 c0 -8 9 -15 20 -15 17 0 20 -7 20 -50 0 -38 4 -50 15 -50
11 0 15 12 15 49 0 42 3 50 20 53 41 6 19 23 -35 26 -44 2 -55 0 -55 -13z"/>
<path d="M1340 425 l0 -65 54 0 c59 0 84 17 71 47 -5 10 -7 26 -6 36 4 32 -19
47 -70 47 l-49 0 0 -65z m90 24 c0 -5 -13 -9 -30 -9 -28 0 -38 9 -25 22 8 8
55 -3 55 -13z m5 -54 c0 -5 -15 -11 -32 -13 -25 -3 -33 1 -33 13 0 12 8 16 33
13 17 -2 32 -7 32 -13z"/>
<path d="M1486 481 c-3 -5 -5 -34 -3 -65 l2 -56 53 0 c28 0 52 5 52 10 0 6
-16 10 -35 10 -24 0 -35 5 -35 15 0 10 10 15 30 15 20 0 30 5 30 15 0 10 -10
15 -30 15 -16 0 -30 5 -30 10 0 6 16 10 35 10 24 0 35 5 35 15 0 11 -12 15
-49 15 -28 0 -52 -4 -55 -9z"/>
<path d="M1610 425 c0 -51 3 -65 15 -65 8 0 15 6 15 14 0 23 29 27 42 6 7 -11
21 -20 30 -20 16 0 16 3 6 20 -10 15 -10 22 0 32 18 18 14 56 -7 68 -11 5 -38
10 -60 10 l-41 0 0 -65z m85 15 c0 -9 -11 -16 -27 -18 -23 -3 -28 1 -28 18 0
17 5 21 28 18 16 -2 27 -9 27 -18z"/>
<path d="M857 313 c-14 -14 -6 -23 21 -22 16 0 21 3 12 6 -8 3 -18 10 -21 15
-3 4 -8 5 -12 1z"/>
<path d="M936 312 c-3 -3 -6 -10 -6 -16 0 -6 5 -4 10 4 5 8 10 10 10 4 0 -5
19 -11 41 -13 23 -1 45 -2 48 -3 3 0 22 0 41 1 24 1 31 4 21 10 -11 7 -11 9 0
14 8 3 3 5 -11 4 -14 -1 -30 -8 -36 -16 -9 -11 -13 -11 -27 3 -8 9 -18 12 -21
7 -4 -6 -18 -6 -35 -1 -16 4 -32 6 -35 2z"/>
<path d="M1130 305 c0 -6 9 -11 20 -11 11 0 20 5 20 11 0 6 -9 11 -20 11 -11
0 -20 -5 -20 -11z"/>
<path d="M1183 310 c5 -18 77 -23 77 -5 0 15 -31 16 -48 2 -10 -8 -16 -7 -24
4 -8 12 -9 12 -5 -1z"/>
<path d="M1280 306 c14 -14 37 -15 37 -2 0 6 -11 11 -23 11 -14 0 -19 -4 -14
-9z"/>
<path d="M1330 308 c0 -14 8 -18 33 -17 17 0 25 3 17 6 -8 3 -18 11 -22 17 -5
7 -8 6 -8 -4 0 -13 -1 -13 -10 0 -8 13 -10 12 -10 -2z"/>
<path d="M1410 305 c0 -8 2 -15 4 -15 2 0 6 7 10 15 3 8 1 15 -4 15 -6 0 -10
-7 -10 -15z"/>
<path d="M1451 304 c0 -11 3 -14 6 -6 3 7 2 16 -1 19 -3 4 -6 -2 -5 -13z"/>
<path d="M1470 305 c0 -5 24 -10 53 -11 34 0 54 4 54 11 0 7 -20 11 -54 11
-29 -1 -53 -5 -53 -11z"/>
<path d="M1593 310 c4 -17 40 -25 64 -15 13 4 14 8 4 18 -9 9 -14 9 -21 -3 -9
-13 -10 -13 -10 0 0 13 -1 13 -10 0 -9 -13 -11 -13 -21 0 -9 13 -10 13 -6 0z"/>
<path d="M1687 307 c-5 -13 -1 -17 18 -17 18 0 23 4 18 16 -4 11 -8 12 -13 4
-6 -9 -9 -9 -12 1 -3 9 -6 8 -11 -4z"/>
</g>
</svg>
