<?xml version="1.0" standalone="no"?>
<!DOCTYPE svg PUBLIC "-//W3C//DTD SVG 20010904//EN"
 "http://www.w3.org/TR/2001/REC-SVG-20010904/DTD/svg10.dtd">
<svg version="1.0" xmlns="http://www.w3.org/2000/svg"
 width="1024.000000pt" height="559.000000pt" viewBox="0 0 1024.000000 559.000000"
 preserveAspectRatio="xMidYMid meet">

<g transform="translate(0.000000,559.000000) scale(0.100000,-0.100000)"
fill="#000000" stroke="none">
<path d="M5084 4542 c-12 -9 -27 -27 -33 -39 -14 -27 -14 -90 -1 -98 6 -3 10
-13 10 -21 0 -8 -67 -112 -150 -232 -82 -119 -146 -220 -142 -224 21 -20 44 5
179 201 81 118 153 216 159 218 20 7 24 -56 24 -426 0 -230 4 -361 10 -351 10
16 13 11 23 -35 3 -11 5 168 6 398 1 326 4 417 14 417 6 -1 55 -64 107 -140
198 -291 204 -299 217 -288 7 6 13 14 13 18 0 4 -66 103 -146 221 -141 207
-146 215 -135 245 30 83 -13 154 -94 154 -23 0 -49 -8 -61 -18z"/>
<path d="M5287 4428 c-9 -73 11 -95 113 -128 14 -4 144 -51 290 -104 146 -53
268 -96 273 -96 4 0 7 12 7 26 0 14 7 41 16 60 9 19 15 36 13 38 -2 2 -76 29
-164 61 -88 31 -189 67 -225 80 -349 130 -316 123 -323 63z"/>
<path d="M4875 4430 c-55 -21 -192 -71 -305 -111 -295 -104 -272 -92 -255
-134 8 -19 15 -44 15 -55 0 -11 6 -23 13 -25 7 -3 120 33 252 81 132 47 273
97 312 111 81 27 117 62 102 98 -4 11 -8 32 -8 48 -1 15 -6 27 -13 26 -7 -1
-58 -18 -113 -39z"/>
<path d="M4109 4199 c-22 -24 -29 -41 -29 -73 0 -97 98 -145 173 -85 l25 19
185 -90 c102 -50 190 -90 195 -90 6 0 13 7 16 16 5 12 -37 36 -189 109 -176
85 -195 96 -195 119 0 63 -47 106 -115 106 -28 0 -44 -7 -66 -31z"/>
<path d="M6051 4204 c-21 -18 -33 -38 -37 -65 -6 -35 -12 -42 -53 -61 -141
-64 -345 -159 -348 -162 -6 -6 9 -36 17 -36 4 0 64 26 131 58 68 33 156 74
196 92 l72 32 27 -21 c32 -25 90 -28 123 -5 13 9 30 32 38 51 42 101 -82 188
-166 117z"/>
<path d="M4998 4063 c-75 -52 -77 -54 -88 -111 -6 -31 -15 -70 -21 -86 -16
-50 -10 -67 43 -132 28 -35 52 -63 54 -61 5 5 96 439 92 441 -1 1 -38 -21 -80
-51z"/>
<path d="M5260 3871 c0 -153 4 -251 9 -245 5 5 37 43 70 84 l61 75 0 95 -1 95
-69 75 -70 75 0 -254z"/>
<path d="M4220 3979 c-14 -6 -40 -8 -57 -4 -40 7 -39 15 -18 -175 19 -167 27
-210 80 -430 46 -191 70 -259 147 -422 l51 -106 31 19 c17 10 46 19 64 19 19
0 32 3 30 8 -2 4 -27 55 -56 114 -114 231 -195 557 -227 916 -4 39 -10 72 -14
71 -3 0 -17 -5 -31 -10z"/>
<path d="M6036 3858 c-53 -418 -107 -629 -219 -860 l-53 -108 26 0 c14 0 43
-9 64 -19 l38 -20 53 112 c107 225 182 524 215 856 16 162 17 158 -28 158 -21
0 -47 3 -58 7 -20 6 -22 0 -38 -126z"/>
<path d="M4695 3920 c-3 -6 1 -7 9 -4 18 7 21 14 7 14 -6 0 -13 -4 -16 -10z"/>
<path d="M5482 3880 c0 -14 2 -19 5 -12 2 6 2 18 0 25 -3 6 -5 1 -5 -13z"/>
<path d="M5505 3880 c-3 -6 1 -7 9 -4 18 7 21 14 7 14 -6 0 -13 -4 -16 -10z"/>
<path d="M5718 3870 c-20 -11 -50 -40 -67 -65 l-30 -45 48 0 c34 0 53 -5 64
-18 38 -42 6 -161 -52 -195 -24 -14 -55 -17 -174 -17 l-146 0 -24 -31 c-21
-27 -23 -35 -13 -70 l10 -39 132 0 c120 0 134 -2 165 -23 28 -18 35 -30 37
-62 5 -53 -15 -108 -49 -141 -22 -21 -40 -27 -93 -31 -74 -6 -85 -17 -27 -27
40 -6 101 -61 101 -91 0 -53 132 40 173 122 43 84 46 215 7 278 l-21 34 44 43
c55 53 89 138 90 223 1 69 -17 110 -63 149 -37 31 -62 32 -112 6z"/>
<path d="M4753 3816 c1 -5 -9 -13 -23 -17 -23 -6 -22 -7 9 -8 23 -1 42 -10 59
-28 l25 -28 -16 27 c-25 41 -20 45 15 12 l32 -29 -27 33 c-15 19 -27 37 -27
40 0 4 -11 7 -24 7 -13 0 -24 -4 -23 -9z"/>
<path d="M4370 3808 c0 -19 252 -745 295 -851 11 -27 33 -3 46 50 14 55 57 93
105 93 27 0 35 4 38 23 5 23 19 83 61 260 14 60 25 116 25 124 0 14 -89 131
-100 132 -3 1 -14 -34 -24 -76 -45 -199 -78 -340 -85 -362 -6 -19 -25 30 -90
225 -46 137 -94 282 -108 322 l-26 72 -68 0 c-49 0 -69 -4 -69 -12z"/>
<path d="M5430 3748 c-24 -29 -51 -62 -59 -73 -16 -20 -16 -20 7 -1 21 18 22
18 22 1 0 -18 1 -18 18 1 36 39 86 108 69 95 -22 -17 -34 -7 -17 14 7 8 10 15
8 15 -3 0 -24 -24 -48 -52z"/>
<path d="M4915 3661 c-3 -6 0 -11 7 -11 9 0 9 -3 -2 -10 -13 -8 -12 -12 5 -27
11 -10 17 -14 13 -9 -13 17 -9 26 10 19 15 -6 15 -3 -3 18 -11 13 -21 25 -21
27 -1 2 -5 -1 -9 -7z"/>
<path d="M5303 3593 c-46 -56 -61 -79 -45 -69 23 14 12 -19 -15 -49 -16 -16
-21 -26 -11 -23 8 4 22 1 29 -5 10 -9 10 -8 -1 6 -11 16 -10 22 16 50 46 49
111 134 88 114 -23 -19 -40 -12 -23 10 6 7 9 13 7 13 -3 0 -23 -21 -45 -47z"/>
<path d="M5010 3516 c0 -2 8 -10 18 -17 15 -13 16 -12 3 4 -13 16 -21 21 -21
13z"/>
<path d="M5043 3474 c3 -4 0 -16 -8 -28 -8 -11 -15 -30 -14 -41 0 -13 4 -9 10
12 7 24 14 31 25 26 14 -5 15 -3 5 15 -7 12 -15 22 -18 22 -3 0 -3 -3 0 -6z"/>
<path d="M5021 3358 c-1 -22 4 -28 19 -28 11 0 20 5 20 11 0 6 -6 9 -14 6 -10
-4 -16 2 -19 16 -4 18 -5 17 -6 -5z"/>
<path d="M5271 3344 c0 -11 3 -14 6 -6 3 7 2 16 -1 19 -3 4 -6 -2 -5 -13z"/>
<path d="M5259 3223 c33 -43 53 -61 50 -46 -4 20 2 24 18 12 10 -8 2 5 -17 29
-33 42 -41 49 -39 35 4 -22 -3 -24 -23 -7 -13 11 -9 2 11 -23z"/>
<path d="M5164 3235 c-3 -8 -4 -20 -1 -27 3 -7 6 -3 6 9 1 12 7 24 14 26 9 4
9 6 -1 6 -7 1 -15 -6 -18 -14z"/>
<path d="M4945 3159 c-33 -41 -69 -84 -81 -96 -20 -20 -21 -23 -6 -35 13 -11
14 -11 8 0 -10 17 11 42 38 43 14 0 40 25 80 76 32 42 52 73 43 70 -9 -3 -17
-1 -19 5 -3 7 -31 -22 -63 -63z m18 -22 c-9 -13 -23 -24 -29 -24 -9 0 -8 7 3
24 8 13 22 23 30 23 11 0 10 -5 -4 -23z"/>
<path d="M5160 3170 c0 -13 -5 -18 -15 -14 -17 7 -19 -9 -5 -41 l9 -20 2 20
c2 11 6 -36 9 -105 l6 -125 2 153 c1 83 0 152 -3 152 -3 0 -5 -9 -5 -20z"/>
<path d="M5360 3145 c5 -22 -1 -27 -17 -14 -20 16 39 -62 60 -80 11 -9 17 -7
28 6 12 16 12 17 -2 5 -17 -13 -23 -9 -44 27 -5 9 -4 12 3 7 23 -14 20 12 -4
35 -14 13 -25 20 -24 14z"/>
<path d="M5451 3043 c-5 -10 -12 -17 -15 -15 -17 7 -26 0 -25 -20 0 -18 2 -19
7 -7 4 9 14 15 24 14 9 -2 19 6 22 19 4 14 8 17 14 9 8 -13 54 -14 46 -1 -3 4
-12 4 -21 1 -11 -4 -14 -3 -9 5 5 8 0 12 -13 12 -11 0 -24 -8 -30 -17z"/>
<path d="M4772 3029 c-7 -12 -11 -24 -8 -27 3 -3 6 0 6 6 0 7 8 12 18 12 10 0
19 7 19 15 0 22 -20 18 -35 -6z"/>
<path d="M4895 2968 c2 -31 7 -35 84 -67 45 -19 79 -36 77 -39 -3 -2 -35 -10
-71 -17 l-67 -12 -18 42 c-15 35 -23 43 -43 41 l-24 -1 20 -42 c12 -24 19 -45
16 -48 -11 -10 -234 -54 -241 -47 -4 4 30 39 75 77 78 66 82 71 66 87 -16 15
-19 15 -36 -4 -10 -11 -45 -42 -79 -69 -57 -45 -63 -48 -91 -37 -62 23 -143
-32 -143 -98 0 -60 53 -114 112 -114 35 0 85 43 93 80 4 17 9 30 12 30 3 0 62
12 130 26 69 14 127 24 128 22 2 -2 47 -92 100 -201 53 -108 99 -197 103 -197
36 1 30 23 -61 211 -61 125 -90 196 -83 200 6 4 48 15 93 24 72 15 82 20 86
42 5 26 7 25 -143 84 -41 17 -80 37 -86 45 -9 12 -11 8 -9 -18z"/>
<path d="M5330 2951 c-164 -72 -160 -69 -160 -94 0 -21 7 -25 53 -35 28 -6 71
-15 95 -18 23 -4 42 -10 42 -13 0 -4 -41 -94 -91 -200 -73 -153 -89 -195 -78
-202 8 -5 17 -9 20 -9 6 0 96 186 159 328 21 46 38 72 49 72 17 0 215 -37 242
-46 9 -2 22 -18 29 -35 26 -62 89 -85 149 -55 52 27 68 112 30 160 -31 39 -65
50 -116 36 l-42 -12 -76 62 c-42 35 -79 69 -82 76 -3 8 -9 14 -15 14 -5 0 -6
-4 -3 -10 3 -5 0 -7 -9 -4 -9 3 -24 -5 -37 -20 -17 -20 -25 -23 -32 -14 -6 10
-7 9 -4 -2 3 -10 17 -15 45 -15 36 0 51 -8 117 -64 42 -35 73 -66 71 -69 -5
-4 -244 36 -254 43 -1 1 5 19 13 39 14 32 14 39 1 57 -13 19 -15 18 -37 -31
l-24 -52 -54 6 c-79 9 -93 21 -51 39 133 55 138 58 133 78 -7 24 -5 24 -83
-10z m210 -10 c0 -10 -50 -25 -58 -17 -3 3 6 10 19 15 31 13 39 13 39 2z"/>
<path d="M5163 2760 c0 -36 2 -50 4 -32 2 17 2 47 0 65 -2 17 -4 3 -4 -33z"/>
<path d="M4665 2693 c-3 -15 -17 -42 -31 -60 l-24 -31 58 -54 c101 -93 165
-144 251 -202 87 -57 100 -58 101 -11 0 11 7 29 15 39 8 11 15 26 15 32 0 7
-46 46 -102 86 -57 39 -128 95 -158 122 -30 28 -69 63 -86 79 l-31 28 -8 -28z"/>
<path d="M5604 2689 c-45 -47 -170 -149 -261 -213 -46 -32 -83 -60 -83 -62 0
-3 9 -22 20 -44 11 -22 20 -49 20 -60 l0 -21 40 22 c70 39 231 165 302 235 66
66 67 68 47 82 -12 8 -29 32 -38 53 l-18 39 -29 -31z"/>
<path d="M5160 2575 c0 -61 -3 -85 -12 -85 -8 0 -9 -3 -3 -8 6 -4 12 -18 13
-32 8 -56 12 -27 12 88 0 67 -2 122 -5 122 -3 0 -5 -38 -5 -85z"/>
<path d="M5062 2305 c0 -16 2 -22 5 -12 2 9 2 23 0 30 -3 6 -5 -1 -5 -18z"/>
<path d="M5085 2311 c-3 -5 -2 -12 3 -15 5 -3 9 1 9 9 0 17 -3 19 -12 6z"/>
<path d="M5205 2290 c0 -14 5 -27 10 -27 6 0 10 11 10 24 0 12 -4 25 -10 27
-5 2 -10 -9 -10 -24z"/>
<path d="M5251 2284 c0 -11 3 -14 6 -6 3 7 2 16 -1 19 -3 4 -6 -2 -5 -13z"/>
<path d="M5080 2259 c0 -5 -5 -7 -11 -3 -21 13 10 -34 33 -50 30 -21 92 -21
109 1 13 15 12 15 -6 6 -11 -6 -38 -9 -59 -8 -42 4 -76 28 -57 39 6 4 11 2 11
-5 0 -7 2 -10 5 -7 8 7 -5 38 -16 38 -5 0 -9 -5 -9 -11z"/>
<path d="M5240 2251 c0 -7 -5 -9 -12 -5 -7 5 -8 3 -3 -5 5 -9 10 -10 18 -2 6
6 8 14 4 18 -4 3 -7 1 -7 -6z"/>
<path d="M3336 1893 c30 -67 90 -201 160 -361 l49 -112 64 2 64 3 113 255 c63
140 114 258 114 263 0 4 -27 7 -60 7 l-61 0 -30 -67 c-17 -38 -53 -120 -80
-182 -27 -63 -52 -117 -54 -120 -3 -2 -15 20 -28 50 -13 30 -50 114 -82 187
l-59 132 -68 0 -68 0 26 -57z"/>
<path d="M3950 1685 l0 -265 215 0 215 0 2 35 c1 19 2 43 2 52 1 16 -12 17
-151 14 l-153 -3 0 61 0 61 130 0 130 0 0 50 0 50 -130 0 -130 0 0 55 0 55
150 0 150 0 0 50 0 50 -215 0 -215 0 0 -265z"/>
<path d="M4465 1919 c-4 -18 -4 -137 0 -265 l7 -234 202 2 201 3 0 50 0 50
-142 0 -143 0 0 213 0 212 -59 0 c-58 0 -60 -1 -66 -31z"/>
<path d="M4820 1900 l0 -50 90 0 90 0 0 -215 0 -215 60 0 60 0 2 213 3 212 88
3 87 3 0 49 0 50 -240 0 -240 0 0 -50z"/>
<path d="M5360 1684 l0 -266 193 4 c174 3 196 5 238 26 49 24 79 70 79 122 0
28 -28 100 -39 100 -3 0 -14 7 -25 15 -18 14 -18 15 8 45 36 44 37 116 1 158
-42 50 -96 62 -287 62 l-168 0 0 -266z m322 166 c15 0 38 -33 38 -55 0 -42
-34 -55 -142 -55 l-98 0 0 53 c0 30 3 57 8 61 4 5 48 6 97 2 50 -3 93 -6 97
-6z m24 -215 c33 -13 35 -17 32 -52 -4 -52 -30 -63 -155 -63 l-103 0 0 65 0
65 95 0 c62 0 108 -5 131 -15z"/>
<path d="M5940 1685 l0 -265 215 0 215 0 0 50 0 50 -107 1 c-60 1 -128 2 -153
3 l-45 1 -3 58 -3 57 131 0 130 0 0 50 0 50 -130 0 -130 0 0 55 0 55 150 0
150 0 0 50 0 50 -210 0 -210 0 0 -265z"/>
<path d="M6440 1685 l0 -266 63 3 62 3 3 78 3 77 62 0 62 0 53 -80 52 -80 65
0 c36 0 65 3 65 6 0 3 -25 42 -55 86 l-56 81 37 30 c44 37 64 81 64 141 0 56
-14 93 -48 129 -42 44 -105 57 -279 57 l-153 0 0 -265z m329 141 c15 -14 21
-31 21 -62 0 -66 -30 -84 -136 -84 l-84 0 0 86 0 86 89 -4 c70 -2 93 -7 110
-22z"/>
<path d="M4244 1298 c-5 -8 -2 -9 9 -5 9 3 19 2 22 -4 7 -10 25 -3 25 9 0 13
-49 12 -56 0z"/>
<path d="M3588 1228 c-3 -45 -6 -53 -23 -53 -17 0 -20 8 -23 48 -4 62 -22 61
-22 -1 0 -52 12 -72 45 -72 33 0 45 20 45 77 0 69 -18 69 -22 1z"/>
<path d="M3625 1269 c-4 -6 2 -13 14 -16 18 -4 21 -13 21 -54 0 -27 5 -49 10
-49 6 0 10 22 10 49 0 42 3 49 22 54 12 4 19 9 15 14 -12 12 -85 14 -92 2z"/>
<path d="M3744 1254 c-20 -19 -24 -31 -19 -52 10 -39 24 -52 56 -52 30 0 59
31 59 63 0 19 -42 67 -60 67 -6 0 -22 -11 -36 -26z m61 -44 c0 -31 -3 -35 -25
-35 -19 0 -26 6 -28 23 -5 36 5 54 30 50 19 -2 23 -9 23 -38z"/>
<path d="M4135 1255 c-33 -32 -31 -58 5 -97 23 -24 27 -34 18 -40 -9 -6 -7 -8
7 -6 12 2 19 10 17 20 -1 9 4 18 13 22 27 10 16 24 -17 22 -31 -1 -33 1 -33
34 0 30 3 35 25 37 44 2 45 3 26 18 -27 20 -33 19 -61 -10z"/>
<path d="M4362 1264 c-43 -30 -23 -114 27 -114 56 0 82 69 41 110 -24 24 -38
25 -68 4z m64 -39 c7 -27 -9 -55 -31 -55 -22 0 -38 28 -31 55 5 18 13 25 31
25 18 0 26 -7 31 -25z"/>
<path d="M4515 1272 c-7 -7 -6 -87 1 -106 9 -23 24 -20 24 4 0 11 4 20 10 20
5 0 14 -9 20 -20 14 -25 33 -26 25 -1 -3 10 -1 30 4 44 13 33 -4 54 -47 59
-17 3 -34 2 -37 0z m65 -42 c0 -13 -7 -20 -20 -20 -13 0 -20 7 -20 20 0 13 7
20 20 20 13 0 20 -7 20 -20z"/>
<path d="M4630 1213 l0 -63 41 0 c24 0 38 4 34 10 -3 6 -17 10 -31 10 -15 0
-24 6 -24 15 0 9 9 15 25 15 14 0 25 5 25 10 0 6 -11 10 -25 10 -35 0 -33 28
3 32 39 4 29 22 -13 23 l-35 0 0 -62z"/>
<path d="M4736 1264 c-25 -25 -19 -44 19 -60 38 -15 39 -36 2 -32 -12 2 -23
-1 -25 -7 -4 -15 47 -18 64 -4 22 18 17 38 -16 57 -34 19 -34 39 -2 34 25 -4
30 13 6 22 -24 9 -31 8 -48 -10z"/>
<path d="M5007 1273 c-4 -3 -7 -33 -7 -65 l0 -58 40 0 c22 0 40 5 40 10 0 6
-13 10 -30 10 -20 0 -30 5 -30 15 0 9 9 15 25 15 31 0 33 17 3 22 -35 5 -34
28 1 28 21 0 31 5 31 15 0 10 -10 15 -33 15 -19 0 -37 -3 -40 -7z"/>
<path d="M5100 1215 c0 -37 4 -65 10 -65 6 0 10 16 10 35 0 44 9 44 38 0 12
-19 27 -35 32 -35 6 0 10 27 10 60 0 65 -17 83 -22 23 l-3 -37 -29 42 c-16 23
-33 42 -37 42 -5 0 -9 -29 -9 -65z"/>
<path d="M5260 1273 c-41 -15 -54 -78 -21 -107 22 -20 72 -18 79 3 3 10 -3 12
-25 7 -37 -9 -58 13 -49 50 5 20 12 25 34 24 43 -3 48 0 28 15 -21 16 -23 16
-46 8z"/>
<path d="M5340 1253 c0 -16 -3 -45 -6 -65 -5 -31 -4 -38 10 -38 13 0 16 12 16
65 0 37 -4 65 -10 65 -5 0 -10 -12 -10 -27z"/>
<path d="M5424 1268 c-24 -37 -51 -113 -42 -117 6 -2 15 4 20 13 11 20 47 21
54 1 4 -8 12 -15 20 -15 11 0 9 12 -7 58 -25 67 -34 79 -45 60z m16 -48 c0
-11 -6 -20 -14 -20 -9 0 -12 7 -9 20 3 11 9 20 14 20 5 0 9 -9 9 -20z"/>
<path d="M5506 1273 c-3 -3 -6 -33 -6 -65 l0 -58 40 0 c22 0 40 5 40 10 0 6
-11 10 -25 10 -23 0 -25 3 -25 49 0 47 -9 68 -24 54z"/>
<path d="M5640 1215 l0 -65 40 0 c45 0 55 17 13 22 -35 4 -43 28 -9 28 16 0
26 6 26 15 0 9 -9 15 -25 15 -14 0 -25 5 -25 10 0 6 14 10 30 10 20 0 30 5 30
15 0 11 -11 15 -40 15 l-40 0 0 -65z"/>
<path d="M5790 1216 l0 -66 40 0 c22 0 40 5 40 10 0 6 -13 10 -30 10 -20 0
-30 5 -30 15 0 9 10 15 26 15 16 0 24 5 21 13 -2 6 -14 11 -25 9 -17 -2 -22 2
-22 18 0 16 5 20 25 16 14 -3 25 0 25 5 0 5 -9 9 -19 9 -11 0 -26 3 -35 6 -14
5 -16 -4 -16 -60z"/>
<path d="M5969 1238 l-21 -42 -19 37 c-11 20 -24 37 -29 37 -6 0 -10 -27 -10
-60 0 -33 4 -60 10 -60 6 0 10 15 10 33 l0 32 20 -25 c17 -21 21 -23 30 -10 5
8 10 18 10 23 0 4 4 7 8 7 5 0 7 -13 4 -30 -3 -23 0 -30 12 -30 13 0 16 11 16
59 0 33 -4 62 -10 66 -5 3 -19 -13 -31 -37z"/>
<path d="M6035 1272 c-3 -3 -5 -32 -5 -64 0 -45 3 -58 15 -58 8 0 15 6 15 14
0 8 14 19 31 25 27 9 30 14 27 43 -3 29 -7 33 -40 39 -21 3 -40 4 -43 1z m63
-39 c-5 -26 -38 -29 -38 -4 0 15 6 21 21 21 14 0 19 -5 17 -17z"/>
<path d="M6146 1273 c-3 -4 -6 -33 -6 -65 0 -45 3 -58 15 -58 8 0 15 9 15 20
0 11 4 20 10 20 5 0 14 -9 20 -20 15 -28 27 -25 27 8 0 15 3 34 6 42 4 9 2 23
-5 32 -14 16 -71 31 -82 21z m62 -40 c-5 -26 -38 -29 -38 -4 0 15 6 21 21 21
14 0 19 -5 17 -17z"/>
<path d="M6260 1215 l0 -65 35 0 c19 0 35 5 35 10 0 6 -11 10 -25 10 -16 0
-25 6 -25 15 0 9 9 15 25 15 14 0 25 5 25 10 0 6 -11 10 -25 10 -35 0 -33 28
3 32 36 4 26 21 -15 25 l-33 4 0 -66z"/>
<path d="M6367 1262 c-23 -25 -13 -48 25 -61 33 -12 29 -33 -5 -29 -12 2 -24
-1 -27 -7 -3 -5 9 -11 27 -13 43 -4 63 28 34 57 -10 10 -24 20 -32 23 -7 2 -9
9 -5 16 4 7 16 10 27 7 11 -4 19 -2 19 4 0 6 -4 11 -9 11 -5 0 -16 2 -23 5 -8
3 -22 -3 -31 -13z"/>
<path d="M6471 1220 c-21 -58 -21 -95 0 -57 12 21 59 23 59 2 0 -8 7 -15 15
-15 12 0 11 11 -8 62 -13 34 -28 63 -34 65 -5 2 -20 -24 -32 -57z m37 -19
c-15 -5 -21 7 -13 26 7 17 8 17 15 -2 4 -11 3 -22 -2 -24z"/>
<path d="M6578 1268 c-3 -7 -6 -37 -7 -65 -2 -43 1 -53 13 -53 9 0 16 8 16 20
0 11 4 20 10 20 5 0 14 -9 20 -20 18 -33 25 -23 27 35 3 51 1 56 -23 65 -34
13 -51 13 -56 -2z m62 -38 c0 -13 -7 -20 -20 -20 -13 0 -20 7 -20 20 0 13 7
20 20 20 13 0 20 -7 20 -20z"/>
<path d="M6690 1216 c0 -37 4 -66 10 -66 6 0 10 26 10 59 0 33 -4 63 -10 66
-6 4 -10 -18 -10 -59z"/>
<path d="M6857 1273 c-4 -3 -7 -33 -7 -65 l0 -58 40 0 c22 0 40 5 40 10 0 6
-11 10 -25 10 -24 0 -25 3 -25 55 0 51 -7 65 -23 48z"/>
<path d="M3412 1213 c-22 -58 -21 -82 2 -50 7 9 21 17 31 17 10 0 24 -8 31
-17 23 -32 26 -5 6 49 -27 72 -44 72 -70 1z m48 1 c0 -8 -6 -14 -14 -14 -9 0
-12 7 -9 20 6 22 23 18 23 -6z"/>
<path d="M3860 1210 c0 -63 16 -84 22 -27 l3 32 16 -29 16 -30 16 30 16 29 1
-32 c0 -23 5 -33 15 -33 12 0 15 13 15 60 0 71 -17 80 -44 23 l-18 -38 -19 38
c-11 20 -24 37 -29 37 -6 0 -10 -27 -10 -60z"/>
<path d="M4013 1210 c-17 -46 -19 -60 -9 -60 8 0 16 7 20 15 7 20 43 19 55 -2
20 -36 23 -2 5 49 -26 73 -45 73 -71 -2z m47 4 c0 -8 -6 -14 -14 -14 -9 0 -12
7 -9 20 6 22 23 18 23 -6z"/>
<path d="M4240 1214 c-20 -54 -19 -88 1 -51 13 22 48 22 65 0 23 -33 25 -7 3
51 -12 31 -28 56 -35 56 -7 0 -22 -25 -34 -56z m38 -13 c-15 -5 -21 7 -13 26
7 17 8 17 15 -2 4 -11 3 -22 -2 -24z"/>
<path d="M4830 1210 c0 -33 4 -60 10 -60 6 0 10 27 10 60 0 33 -4 60 -10 60
-6 0 -10 -27 -10 -60z"/>
<path d="M4880 1210 l0 -60 33 0 c56 0 84 50 57 101 -8 14 -21 19 -50 19 l-40
0 0 -60z m75 20 c8 -26 -11 -60 -35 -60 -17 0 -20 7 -20 40 0 36 3 40 24 40
16 0 27 -7 31 -20z"/>
<path d="M6761 1248 c-5 -13 -16 -40 -24 -60 -13 -31 -13 -38 -3 -38 8 0 16 7
20 15 3 8 16 15 30 15 13 0 26 -7 30 -15 3 -8 10 -15 15 -15 5 0 0 27 -12 60
-23 63 -42 75 -56 38z m27 -47 c-15 -5 -21 7 -13 26 7 17 8 17 15 -2 4 -11 3
-22 -2 -24z"/>
<path d="M3385 1030 c9 -14 3555 -14 3555 0 0 7 -600 10 -1781 10 -1184 0
-1778 -3 -1774 -10z"/>
</g>
</svg>
